<svg width="30" height="30" viewBox="0 0 30 30" fill="none" xmlns="http://www.w3.org/2000/svg">
<g clip-path="url(#clip0_288_5955)">
<path d="M27.9817 14.3653H26.1974C25.7912 13.2291 25.1367 12.2118 24.299 11.3801L27.0508 10.1654C27.4439 9.99181 27.6592 9.5581 27.5474 9.14325C27.2156 7.91178 26.0954 7.00586 24.7647 7.00586H22.495C21.1899 7.00586 20.0879 7.87756 19.7329 9.07294H17.3358C16.4355 12.3986 13.3945 14.8522 9.79117 14.8522C7.59161 14.8522 5.6017 13.9377 4.18015 12.469C3.77978 13.0403 3.45183 13.6664 3.21013 14.3342C2.49217 14.1771 1.90184 13.6092 1.73678 12.8697C1.63108 12.3959 1.16098 12.0972 0.687538 12.2033C0.213805 12.3091 -0.0845551 12.7788 0.021207 13.2526C0.200973 14.0581 0.653377 14.7894 1.29504 15.3118C1.7342 15.6693 2.25059 15.9182 2.79774 16.043C2.75514 16.378 2.73311 16.7195 2.73311 17.066V17.9182C2.73311 21.1482 4.64011 23.9303 7.38448 25.191V27.1279C7.38448 28.182 8.23907 29.0366 9.29324 29.0366C10.3474 29.0366 11.202 28.182 11.202 27.1279V25.9113H18.3523V27.1279C18.3523 28.182 19.2069 29.0366 20.2611 29.0366C21.3153 29.0366 22.1698 28.182 22.1698 27.1279V25.1165C24.1765 24.1404 25.7131 22.3424 26.3466 20.1577H27.9816C29.0963 20.1577 30 19.2498 30 18.1298V16.3931C30.0001 15.2732 29.0964 14.3653 27.9817 14.3653ZM21.4963 14.8727C21.0127 14.8727 20.6206 14.4807 20.6206 13.997C20.6206 13.5133 21.0126 13.1213 21.4963 13.1213C21.98 13.1213 22.3721 13.5133 22.3721 13.997C22.3721 14.4807 21.98 14.8727 21.4963 14.8727Z" fill="#16DBCC"/>
<path d="M9.79133 0.963379C6.45082 0.963379 3.73323 3.68437 3.73323 7.02885C3.73323 10.3734 6.45088 13.0944 9.79133 13.0944C13.1318 13.0944 15.8494 10.3734 15.8494 7.02885C15.8494 3.68425 13.1317 0.963379 9.79133 0.963379ZM9.22877 6.10207H10.3539C11.623 6.10207 12.6555 7.13532 12.6555 8.40534C12.6555 9.56785 11.7901 10.5314 10.6702 10.6862V11.0163C10.6702 11.5017 10.2767 11.8953 9.79133 11.8953C9.30593 11.8953 8.91242 11.5017 8.91242 11.0163V10.7085H8.68818C7.71716 10.7085 6.92707 9.91806 6.92707 8.94646C6.92707 8.46106 7.32059 8.06755 7.80599 8.06755C8.29138 8.06755 8.6849 8.46106 8.6849 8.94646L10.3538 8.95068C10.6537 8.95068 10.8976 8.70599 10.8976 8.40528C10.8976 8.10458 10.6537 7.85989 10.3538 7.85989H9.22871C7.95956 7.85989 6.92707 6.8267 6.92707 5.55668C6.92707 4.39411 7.79245 3.43054 8.91242 3.27573V3.04141C8.91242 2.55602 9.30593 2.1625 9.79133 2.1625C10.2767 2.1625 10.6702 2.55602 10.6702 3.04141V3.25341H10.8944C11.8654 3.25341 12.6555 4.0439 12.6555 5.0155C12.6555 5.5009 12.262 5.89441 11.7766 5.89441C11.2912 5.89441 10.8977 5.5009 10.8977 5.0155C10.8977 5.0141 10.8976 5.01351 10.8976 5.01351L9.22877 5.01123C8.92888 5.01123 8.68495 5.25592 8.68495 5.55668C8.68495 5.85738 8.92888 6.10207 9.22877 6.10207Z" fill="#16DBCC"/>
</g>
<defs>
<clipPath id="clip0_288_5955">
<rect width="30" height="30" fill="white"/>
</clipPath>
</defs>
</svg>
