<svg width="74" height="58" viewBox="0 0 74 58" fill="none" xmlns="http://www.w3.org/2000/svg">
<path d="M22.025 18.0501C21.925 17.5501 21.875 17.0501 21.925 16.6001C21.925 16.0001 22.075 15.5001 22.375 15.0001C22.675 14.4501 23.175 14.0001 23.725 13.7501C24.275 13.4501 24.975 13.3501 25.625 13.4501C26.225 13.5001 26.825 13.7501 27.325 14.1001C27.775 14.4001 28.175 14.8001 28.525 15.2501C29.075 16.0001 29.475 16.9001 29.675 17.9501V18.1001C29.775 18.7501 29.375 19.3501 28.725 19.5501C28.625 19.6001 28.525 19.6001 28.425 19.6001C28.025 19.6501 27.675 19.5501 27.375 19.3001C27.075 19.0501 26.875 18.7501 26.825 18.3501C26.725 17.6501 26.575 17.0501 26.275 16.6001C26.025 16.1501 25.625 15.8001 25.225 15.7001C25.075 15.6501 24.875 15.6501 24.725 15.7001C24.525 15.7501 24.375 15.9001 24.275 16.0501C24.125 16.2501 24.025 16.4501 24.025 16.7501C23.975 17.0501 23.975 17.3501 24.025 17.6501C24.125 18.2501 24.325 18.9501 24.675 19.6501C24.825 19.9501 25.025 20.3001 25.225 20.6501C25.425 21.0001 25.675 21.3001 25.875 21.5501C26.425 22.2001 26.925 22.7001 27.475 23.1001C28.125 23.5501 28.775 23.8501 29.425 23.9501C30.075 24.0501 30.825 24.0501 31.575 23.8001C32.175 23.6501 32.525 23.8501 32.625 24.1501C32.725 24.4001 32.575 24.8001 31.975 25.0001H31.925C31.025 25.3001 30.075 25.4001 29.225 25.2501C28.375 25.1501 27.475 24.7501 26.625 24.2501C25.925 23.8001 25.325 23.2001 24.675 22.5001C24.425 22.2001 24.175 21.9001 23.975 21.6501L23.875 21.5001C23.575 21.1501 23.325 20.8001 23.125 20.4501C22.525 19.6501 22.175 18.8501 22.025 18.0501ZM44.225 27.9501C45.125 29.1001 49.075 27.9501 49.725 26.6501C52.325 21.3501 49.725 19.0501 49.725 19.0501L44.225 19.8001C44.225 19.8501 43.125 26.5501 44.225 27.9501Z" fill="#3E4347"/>
<path d="M36.775 27.9503C35.875 29.1003 31.925 27.9503 31.275 26.6503C28.675 21.3503 31.275 19.0503 31.275 19.0503L36.775 19.8003C36.775 19.8503 37.925 26.5503 36.775 27.9503Z" fill="#3E4347"/>
<path d="M38.125 27.6002C38.075 28.1502 36.825 28.4502 35.325 28.3002C33.825 28.1502 32.675 27.6502 32.675 27.1002C32.725 26.5502 33.875 27.2502 35.375 27.3502C36.925 27.5502 38.175 27.1002 38.125 27.6002ZM42.875 27.6002C42.925 28.1502 44.175 28.4502 45.675 28.3002C47.175 28.1502 48.325 27.6502 48.325 27.1002C48.275 26.5502 47.125 27.2502 45.625 27.3502C44.075 27.5502 42.825 27.1002 42.875 27.6002Z" fill="white"/>
<path d="M40.475 30.2C41.475 31.3 44.925 31.25 46.025 30.2C47.525 28.7 47.475 21.85 47.525 18.55L41.025 18C41.075 18 39.225 28.75 40.475 30.2Z" fill="#4C5359"/>
<path d="M40.525 30.2C39.525 31.3 36.075 31.25 34.975 30.2C33.475 28.7 33.525 21.85 33.475 18.55L39.975 18C39.975 18 41.775 28.75 40.525 30.2Z" fill="#4C5359"/>
<path d="M37.875 21.8501L40.525 27.4501L43.175 21.8501H37.875Z" fill="white"/>
<path d="M50.825 1.09978C49.625 0.399777 43.425 3.64978 42.175 5.84978L51.125 11.1498C52.325 8.99978 51.975 1.74978 50.825 1.09978Z" fill="#4C5359"/>
<path d="M48.975 4.3999C48.525 4.1499 44.875 5.7999 44.175 6.9999L49.175 9.9499C49.825 8.7999 49.375 4.6499 48.975 4.3999Z" fill="#F7A4A4"/>
<path d="M30.225 1.10005C29.025 1.80005 28.675 8.95005 29.925 11.15L38.875 5.85005C37.675 3.70005 31.375 0.400049 30.225 1.10005Z" fill="#4C5359"/>
<path d="M32.125 4.40023C31.675 4.65023 31.225 8.75023 31.925 9.95023L36.875 7.00023C36.225 5.85023 32.525 4.15023 32.125 4.40023Z" fill="#F7A4A4"/>
<path d="M40.525 4.7002C30.125 4.7002 29.125 12.0002 29.125 16.0502C29.125 17.7502 34.225 23.0002 40.475 23.0002C46.775 23.0002 51.875 17.7502 51.875 16.0502C51.875 12.0002 50.875 4.7002 40.525 4.7002Z" fill="#4C5359"/>
<path d="M37.625 14.2498C37.625 14.2498 36.425 16.0498 34.225 15.4998C32.025 14.9498 31.925 12.7998 31.925 12.7998C31.925 12.7998 33.125 10.9998 35.325 11.5498C37.525 12.1498 37.625 14.2498 37.625 14.2498Z" fill="#BFFFAB"/>
<path d="M37.375 13.3499C37.375 13.3499 36.325 14.4999 34.875 14.4999C33.325 14.4999 32.375 12.2999 32.375 12.2999C32.375 12.2999 33.425 11.0999 35.275 11.5999C37.025 11.9999 37.375 13.3499 37.375 13.3499Z" fill="#93E67F"/>
<path d="M35.775 13.2999C35.775 15.7499 34.575 15.7499 34.575 13.2999C34.575 10.8499 35.775 10.8499 35.775 13.2999Z" fill="#4C5359"/>
<path d="M43.425 14.2498C43.425 14.2498 44.625 16.0498 46.825 15.4998C49.025 14.9498 49.125 12.7998 49.125 12.7998C49.125 12.7998 47.925 10.9998 45.725 11.5498C43.525 12.1498 43.425 14.2498 43.425 14.2498Z" fill="#BFFFAB"/>
<path d="M43.625 13.3499C43.625 13.3499 44.675 14.4999 46.125 14.4999C47.675 14.4999 48.625 12.2999 48.625 12.2999C48.625 12.2999 47.575 11.0999 45.725 11.5999C43.975 11.9999 43.625 13.3499 43.625 13.3499Z" fill="#93E67F"/>
<path d="M45.225 13.2999C45.225 15.7499 46.425 15.7499 46.425 13.2999C46.475 10.8499 45.225 10.8499 45.225 13.2999Z" fill="#4C5359"/>
<path d="M43.825 16.25C42.825 15.5 41.725 13 40.525 13C39.325 13 38.175 15.5 37.225 16.25C35.675 17.45 31.475 18.8 31.475 18.8C31.475 18.8 35.925 22.6 40.525 22.6C45.125 22.6 49.575 18.8 49.575 18.8C49.575 18.8 45.375 17.45 43.825 16.25Z" fill="white"/>
<path d="M43.725 19.6497C43.375 19.8497 42.925 19.9497 42.525 19.9497C42.125 19.8997 41.725 19.7997 41.425 19.5497C41.125 19.2997 40.875 18.9497 40.825 18.5997L40.525 16.9497L40.225 18.5997C40.175 18.9997 39.925 19.2997 39.625 19.5497C39.325 19.7997 38.925 19.9497 38.525 19.9497C38.075 19.9497 37.675 19.8997 37.325 19.6497C36.975 19.4497 36.625 19.0997 36.475 18.6497C36.475 19.1497 36.775 19.5997 37.125 19.8997C37.475 20.1997 38.025 20.3997 38.475 20.4497C38.975 20.4997 39.475 20.3497 39.925 20.0497C40.175 19.8997 40.325 19.6997 40.525 19.4497C40.675 19.6997 40.875 19.8997 41.125 20.0497C41.575 20.3497 42.075 20.4997 42.575 20.4497C43.075 20.4497 43.575 20.2497 43.925 19.8997C44.325 19.5997 44.575 19.0997 44.575 18.6497C44.425 19.0997 44.125 19.4497 43.725 19.6497Z" fill="#4C5359"/>
<path d="M42.075 16.5499C41.775 16.1999 40.825 16.1499 40.525 16.1499C40.225 16.1499 39.275 16.1999 38.975 16.5499C38.775 16.7999 38.925 17.4499 39.525 18.0499C39.875 18.3999 40.225 18.4999 40.525 18.4999C40.825 18.4999 41.175 18.3999 41.525 18.0499C42.125 17.4499 42.275 16.7999 42.075 16.5499Z" fill="#4C5359"/>
<path d="M40.375 29.8C40.375 30.35 39.225 30.75 37.775 30.75C36.325 30.75 35.175 30.3 35.175 29.8C35.175 29.25 36.325 29.85 37.775 29.85C39.175 29.85 40.375 29.3 40.375 29.8ZM45.825 29.8C45.825 30.35 44.675 30.75 43.225 30.75C41.775 30.75 40.625 30.3 40.625 29.8C40.625 29.25 41.775 29.85 43.225 29.85C44.675 29.85 45.825 29.3 45.825 29.8Z" fill="white"/>
<path d="M35.675 30.6001L36.375 29.4001L36.175 30.8001L35.675 30.6001ZM37.425 31.0001L37.675 29.3501L37.925 31.0001H37.425ZM39.375 30.8001L39.175 29.5001L39.875 30.6501L39.375 30.8001ZM44.875 30.8001L44.675 29.4001L45.375 30.6001L44.875 30.8001ZM43.075 31.0001L43.325 29.3501L43.575 31.0001H43.075ZM41.125 30.6501L41.825 29.5001L41.625 30.8001L41.125 30.6501Z" fill="#3E4347"/>
<path d="M24.9797 53V44.6H25.7117L29.5517 51.152H29.1677L32.9717 44.6H33.7037V53H32.8517V45.932H33.0557L29.5517 51.932H29.1317L25.6037 45.932H25.8317V53H24.9797ZM39.0867 53.06C38.4307 53.06 37.8547 52.924 37.3587 52.652C36.8627 52.372 36.4747 51.992 36.1947 51.512C35.9147 51.024 35.7747 50.468 35.7747 49.844C35.7747 49.22 35.9067 48.668 36.1707 48.188C36.4427 47.708 36.8107 47.332 37.2747 47.06C37.7467 46.78 38.2747 46.64 38.8587 46.64C39.4507 46.64 39.9747 46.776 40.4307 47.048C40.8947 47.312 41.2587 47.688 41.5227 48.176C41.7867 48.656 41.9187 49.212 41.9187 49.844C41.9187 49.884 41.9147 49.928 41.9067 49.976C41.9067 50.016 41.9067 50.06 41.9067 50.108H36.4227V49.472H41.4507L41.1147 49.724C41.1147 49.268 41.0147 48.864 40.8147 48.512C40.6227 48.152 40.3587 47.872 40.0227 47.672C39.6867 47.472 39.2987 47.372 38.8587 47.372C38.4267 47.372 38.0387 47.472 37.6947 47.672C37.3507 47.872 37.0827 48.152 36.8907 48.512C36.6987 48.872 36.6027 49.284 36.6027 49.748V49.88C36.6027 50.36 36.7067 50.784 36.9147 51.152C37.1307 51.512 37.4267 51.796 37.8027 52.004C38.1867 52.204 38.6227 52.304 39.1107 52.304C39.4947 52.304 39.8507 52.236 40.1787 52.1C40.5147 51.964 40.8027 51.756 41.0427 51.476L41.5227 52.028C41.2427 52.364 40.8907 52.62 40.4667 52.796C40.0507 52.972 39.5907 53.06 39.0867 53.06ZM38.7867 45.716L36.8427 44.228H37.9827L39.6267 45.716H38.7867ZM46.3708 53.06C45.7628 53.06 45.2148 52.924 44.7268 52.652C44.2468 52.372 43.8668 51.992 43.5868 51.512C43.3068 51.024 43.1668 50.468 43.1668 49.844C43.1668 49.212 43.3068 48.656 43.5868 48.176C43.8668 47.696 44.2468 47.32 44.7268 47.048C45.2068 46.776 45.7548 46.64 46.3708 46.64C46.9948 46.64 47.5468 46.776 48.0268 47.048C48.5148 47.32 48.8948 47.696 49.1668 48.176C49.4468 48.656 49.5868 49.212 49.5868 49.844C49.5868 50.468 49.4468 51.024 49.1668 51.512C48.8948 51.992 48.5148 52.372 48.0268 52.652C47.5388 52.924 46.9868 53.06 46.3708 53.06ZM46.3708 52.304C46.8268 52.304 47.2308 52.204 47.5828 52.004C47.9348 51.796 48.2108 51.508 48.4108 51.14C48.6188 50.764 48.7228 50.332 48.7228 49.844C48.7228 49.348 48.6188 48.916 48.4108 48.548C48.2108 48.18 47.9348 47.896 47.5828 47.696C47.2308 47.488 46.8308 47.384 46.3828 47.384C45.9348 47.384 45.5348 47.488 45.1828 47.696C44.8308 47.896 44.5508 48.18 44.3428 48.548C44.1348 48.916 44.0308 49.348 44.0308 49.844C44.0308 50.332 44.1348 50.764 44.3428 51.14C44.5508 51.508 44.8308 51.796 45.1828 52.004C45.5348 52.204 45.9308 52.304 46.3708 52.304Z" fill="#0F0F0F"/>
</svg>
