<svg width="75" height="58" viewBox="0 0 75 58" fill="none" xmlns="http://www.w3.org/2000/svg">
<path d="M25.425 10.2002C26.325 11.6502 27.325 11.8502 28.025 11.0002C29.125 9.70016 27.925 8.05016 26.625 7.60016C24.475 6.75016 22.625 9.15016 22.625 9.15016C22.625 9.15016 24.675 8.95016 25.425 10.2002Z" fill="#F29A2E"/>
<path d="M43.025 5.1C39.175 7.35 42.375 12.75 35.425 14.2L42.825 17.85C44.325 20.45 48.475 20.65 48.475 20.65C48.475 20.65 49.525 17.55 48.675 15.25C50.975 15.25 52.575 13.85 52.575 13.85C52.575 13.85 51.275 9.25 47.325 9.25C51.225 7.65 51.925 4.35 51.925 4.35C51.925 4.35 48.475 1.95 43.025 5.1Z" fill="#E1EAF2"/>
<path d="M39.475 30.9998H32.325C32.325 30.3998 36.525 30.2998 36.725 26.2998C37.375 30.7498 39.475 30.3998 39.475 30.9998Z" fill="#F4BC58"/>
<path d="M46.325 15.3001C46.325 21.0501 41.625 26.9501 35.825 26.9501C30.025 26.9501 25.325 21.0501 25.325 15.3001C25.325 11.4501 33.625 14.1501 35.825 14.1501C41.625 14.1001 46.325 9.50009 46.325 15.3001Z" fill="#D1DCE6"/>
<path d="M39.825 24.5999C39.825 25.7499 38.175 28.2499 36.725 28.2499C35.275 28.2499 33.625 26.5499 33.625 25.3999C33.625 24.2499 39.825 24.0499 39.825 24.5999Z" fill="#D1DCE6"/>
<path d="M24.875 13.1499C24.875 14.6499 25.175 18.9999 25.175 18.9999L26.525 17.2999L28.125 19.1999L28.475 16.5499L30.925 18.2999L30.475 15.6999L33.425 15.9999L32.075 14.3999L34.125 13.0499C34.125 13.0499 31.625 13.5999 31.675 12.0499C31.725 10.4999 32.975 6.09985 31.425 5.44985C28.575 4.39985 24.875 6.79985 24.875 13.1499Z" fill="#E1EAF2"/>
<path d="M24.875 8.1999C25.0683 8.1999 25.225 8.13275 25.225 8.0499C25.225 7.96706 25.0683 7.8999 24.875 7.8999C24.6817 7.8999 24.525 7.96706 24.525 8.0499C24.525 8.13275 24.6817 8.1999 24.875 8.1999Z" fill="#3E4347"/>
<path d="M27.375 9.1001C27.7892 9.1001 28.125 8.76431 28.125 8.3501C28.125 7.93588 27.7892 7.6001 27.375 7.6001C26.9608 7.6001 26.625 7.93588 26.625 8.3501C26.625 8.76431 26.9608 9.1001 27.375 9.1001Z" fill="#3E4347"/>
<path d="M25.525 11.8C25.525 13.4 24.475 12.25 24.475 12.25C24.125 12.25 22.675 13.35 23.175 11.5C23.825 9.1 26.325 7.5 26.325 7.5C26.325 7.5 25.525 8.9 25.525 11.8Z" fill="#E24B4B"/>
<path d="M32.025 5.29993V4.69993C31.925 3.44993 33.725 2.94993 33.525 2.29993C33.225 1.44993 30.875 1.99993 29.725 3.84993C29.575 4.04993 29.475 4.29993 29.425 4.59993C29.375 4.39993 29.325 4.19993 29.225 3.99993C28.675 2.84993 30.325 1.79993 29.825 1.24993C29.175 0.499933 27.225 1.79993 26.775 3.94993C26.675 4.39993 26.675 4.84993 26.825 5.29993C26.775 5.24993 26.725 5.19993 26.675 5.19993C25.825 4.54993 26.675 3.19993 26.075 2.89993C25.175 2.49993 24.375 4.29993 24.825 6.04993C25.125 7.04993 26.225 8.09993 27.125 7.24993C27.425 6.99993 28.125 6.59993 28.525 6.44993C28.825 6.34993 29.625 6.39993 30.125 6.74993C30.575 7.04993 30.925 7.64993 31.575 7.64993C34.425 7.74993 35.975 4.99993 34.925 4.39993C34.375 3.99993 33.525 4.99993 32.025 5.29993Z" fill="#E24B4B"/>
<path d="M42.875 21.9501C42.425 20.8501 41.125 20.2501 41.125 20.2501C42.475 19.5501 43.275 18.0501 43.275 18.0501C42.575 17.7501 39.875 17.5501 39.875 17.5501C40.475 16.9501 40.975 16.1001 40.975 16.1001C40.975 16.1001 37.875 15.3501 35.275 16.7501C31.875 18.6501 32.875 23.1501 36.725 23.6501C40.975 24.2001 42.875 21.9501 42.875 21.9501Z" fill="#E1EAF2"/>
<path d="M34.4223 53.072C33.7823 53.072 33.1903 52.968 32.6463 52.76C32.1103 52.544 31.6423 52.244 31.2423 51.86C30.8503 51.476 30.5423 51.024 30.3183 50.504C30.1023 49.984 29.9943 49.416 29.9943 48.8C29.9943 48.184 30.1023 47.616 30.3183 47.096C30.5423 46.576 30.8543 46.124 31.2543 45.74C31.6543 45.356 32.1223 45.06 32.6583 44.852C33.2023 44.636 33.7943 44.528 34.4343 44.528C35.0743 44.528 35.6583 44.628 36.1863 44.828C36.7223 45.028 37.1783 45.332 37.5543 45.74L37.0023 46.304C36.6503 45.952 36.2623 45.7 35.8383 45.548C35.4143 45.396 34.9583 45.32 34.4703 45.32C33.9503 45.32 33.4703 45.408 33.0303 45.584C32.5983 45.752 32.2183 45.996 31.8903 46.316C31.5703 46.628 31.3183 46.996 31.1343 47.42C30.9583 47.836 30.8703 48.296 30.8703 48.8C30.8703 49.296 30.9583 49.756 31.1343 50.18C31.3183 50.604 31.5703 50.976 31.8903 51.296C32.2183 51.608 32.5983 51.852 33.0303 52.028C33.4703 52.196 33.9463 52.28 34.4583 52.28C34.9383 52.28 35.3903 52.208 35.8143 52.064C36.2463 51.92 36.6423 51.676 37.0023 51.332L37.5063 52.004C37.1063 52.356 36.6383 52.624 36.1023 52.808C35.5663 52.984 35.0063 53.072 34.4223 53.072ZM36.6543 51.896V48.8H37.5063V52.004L36.6543 51.896ZM43.9376 53V51.608L43.9016 51.38V49.052C43.9016 48.516 43.7496 48.104 43.4456 47.816C43.1496 47.528 42.7056 47.384 42.1136 47.384C41.7056 47.384 41.3176 47.452 40.9496 47.588C40.5816 47.724 40.2696 47.904 40.0136 48.128L39.6296 47.492C39.9496 47.22 40.3336 47.012 40.7816 46.868C41.2296 46.716 41.7016 46.64 42.1976 46.64C43.0136 46.64 43.6416 46.844 44.0816 47.252C44.5296 47.652 44.7536 48.264 44.7536 49.088V53H43.9376ZM41.7656 53.06C41.2936 53.06 40.8816 52.984 40.5296 52.832C40.1856 52.672 39.9216 52.456 39.7376 52.184C39.5536 51.904 39.4616 51.584 39.4616 51.224C39.4616 50.896 39.5376 50.6 39.6896 50.336C39.8496 50.064 40.1056 49.848 40.4576 49.688C40.8176 49.52 41.2976 49.436 41.8976 49.436H44.0696V50.072H41.9216C41.3136 50.072 40.8896 50.18 40.6496 50.396C40.4176 50.612 40.3016 50.88 40.3016 51.2C40.3016 51.56 40.4416 51.848 40.7216 52.064C41.0016 52.28 41.3936 52.388 41.8976 52.388C42.3776 52.388 42.7896 52.28 43.1336 52.064C43.4856 51.84 43.7416 51.52 43.9016 51.104L44.0936 51.692C43.9336 52.108 43.6536 52.44 43.2536 52.688C42.8616 52.936 42.3656 53.06 41.7656 53.06ZM42.1616 45.716L40.2176 44.228H41.3576L43.0016 45.716H42.1616Z" fill="#0F0F0F"/>
</svg>
