<svg width="75" height="58" viewBox="0 0 75 58" fill="none" xmlns="http://www.w3.org/2000/svg">
<path d="M28.61 15.7874C28.61 15.7874 28.0125 17.5124 28.3625 19.3424C28.715 21.1724 29.2075 22.8624 29.2075 22.8624C29.2075 22.8624 29.3125 26.4524 29.2075 26.8399C29.1025 27.2274 28.2925 27.7199 28.2925 28.4249C28.2925 29.1299 28.55 30.0199 29.8525 30.2324C31.155 30.4449 32.21 30.0099 32.645 29.4824C33.2725 28.7199 33.15 28.1799 33.15 27.6174C33.15 27.0549 33.185 23.8174 33.325 23.3224C33.465 22.8299 33.6775 22.5474 34.065 22.5824C34.4525 22.6174 34.875 23.2149 34.91 24.3424C34.945 25.4674 34.98 27.4399 34.945 27.8274C34.91 28.2149 34.5575 29.5174 34.84 30.0449C35.1225 30.5724 36.4 31.0849 37.385 31.0299C38.675 30.9599 39.45 30.1499 39.52 29.5174C39.59 28.8849 39.1675 27.4399 39.1675 27.0174C39.1675 26.5949 39.66 23.7099 39.8 23.5324C39.94 23.3574 40.37 23.3949 41.3125 22.9699C42.17 22.5824 42.6275 22.1949 42.6275 22.1949C42.6275 22.1949 42.65 24.6949 42.615 24.9749C42.58 25.2574 41.735 26.1374 41.875 26.8049C42.015 27.4724 42.84 27.8624 43.575 27.9299C44.8175 28.0474 46.0275 27.0849 46.3425 26.2399C46.66 25.3949 46.5175 24.3399 46.4475 23.7774C46.3775 23.2149 46.3775 21.2424 46.4475 20.7149C46.5175 20.1874 46.6325 19.8674 46.6775 19.5899C46.7475 19.1324 46.73 18.6224 46.73 18.6224C46.73 18.6224 47.945 18.6224 48.665 18.1474C49.385 17.6724 50.1425 16.8449 50.4775 15.8249C50.805 14.8274 50.725 14.5224 50.4425 14.4874C50.16 14.4524 48.895 16.2274 47.82 16.2824C46.1125 16.3699 46.2825 14.5399 44.98 13.4324C43.5125 12.1824 41.225 12.0249 41.225 12.0249C41.225 12.0249 41.62 10.5474 41.625 9.45487C41.6425 4.68487 39.32 3.06737 39.32 3.06737C39.32 3.06737 36.5275 0.987368 33.36 1.12737C30.1925 1.26737 27.87 3.78487 27.87 3.78487L26.1275 11.4749C26.1275 11.4749 26.5675 12.9524 27.2725 14.0274C28.0125 15.1524 28.61 15.7874 28.61 15.7874Z" fill="#FFD2B1"/>
<path d="M26.41 2.08005C23.8225 2.13255 22.455 4.33755 22.415 5.68755C22.3925 6.48005 22.08 12.2401 25.265 12.3575C26.5425 12.4051 27.4925 10.9226 27.975 9.24255C28.5825 7.12505 28.555 5.00255 28.625 4.43755C28.7375 3.53505 28.925 2.87255 28.925 2.87255C28.925 2.87255 28.61 2.03505 26.41 2.08005ZM40.26 1.20005C43.075 1.30505 44.035 2.55255 44.3075 3.27755C44.6075 4.07005 44.87 6.89755 44.43 8.78505C44.0725 10.325 43.5325 11.1075 42.265 11.055C41.105 11.0076 40.5175 9.33505 39.6425 7.06005C38.7975 4.86005 38.15 2.89005 38.04 2.60755C37.9 2.23755 37.6 2.08005 37.6 2.08005C37.6 2.08005 38.1625 1.12005 40.26 1.20005Z" fill="#865B52"/>
<path d="M37.04 6.91773C35.65 7.00523 34.985 8.55023 35.28 10.1027C35.5975 11.7752 36.695 12.5677 38.0775 12.3902C39.59 12.1977 40.0475 10.4727 39.855 9.17023C39.6775 7.98523 39.0075 6.79273 37.04 6.91773Z" fill="#D27856"/>
<path d="M38.675 9.75008C38.675 10.4801 38.27 11.0901 37.6275 11.0726C36.755 11.0476 36.5275 10.2751 36.545 9.62508C36.565 8.86508 37.02 8.50508 37.67 8.52258C38.25 8.53508 38.675 9.02008 38.675 9.75008ZM31.3375 10.1526C31.3375 10.9126 30.9325 11.5476 30.29 11.5276C29.4175 11.5026 29.19 10.6976 29.2075 10.0201C29.2275 9.22758 29.77 8.89008 30.28 8.92758C30.8575 8.97008 31.3375 9.39258 31.3375 10.1526ZM34.68 14.3976C34.68 14.3976 36.21 14.2401 36.14 13.1301C36.07 12.0226 35.0325 11.9501 34.2225 11.9676C33.4125 11.9851 32.2525 12.4076 32.375 13.3401C32.4975 14.2726 33.8175 14.3951 33.8175 14.3951C33.8175 14.3951 33.815 15.0851 33.36 15.1351C32.8675 15.1876 32.1625 14.4301 31.97 14.2376C31.7775 14.0451 31.4775 14.1151 31.3725 14.2726C31.2675 14.4301 31.3375 14.7826 31.6375 15.0826C31.9375 15.3826 32.64 16.1376 33.345 16.0676C34.05 15.9976 34.0675 15.6276 34.3475 15.6101C34.63 15.5926 34.6125 16.0151 35.315 15.9976C35.81 15.9851 36.8075 15.1151 36.9875 14.9601C37.3925 14.6076 37.4975 14.2551 37.3225 14.0276C37.1475 13.8001 36.655 14.1326 36.39 14.3276C36.125 14.5201 35.6975 14.9751 35.2825 15.0501C34.5925 15.1726 34.68 14.3976 34.68 14.3976Z" fill="#060401"/>
<path d="M40.9275 12.7473C40.9275 12.7473 40.595 13.4773 40.3175 14.0623C39.9825 14.7673 39.5025 15.3823 39.5025 15.3823C39.5025 15.3823 40.045 19.0923 43.2725 18.7723C44.4275 18.6573 45.3025 17.7523 45.385 16.7923C45.525 15.1723 44.91 14.4148 43.955 13.6748C42.4075 12.4798 40.9275 12.7473 40.9275 12.7473ZM38.6925 18.5498C38.12 19.0748 38.4275 20.0623 39.185 20.1698C39.9425 20.2748 40.35 19.6448 40.2925 19.1673C40.2075 18.4273 39.345 17.9523 38.6925 18.5498ZM31.215 17.5748C31.215 17.5748 30.71 18.9598 31.7775 20.6948C32.2325 21.4323 33.245 21.8473 33.96 21.8198C34.715 21.7923 35.3975 21.5298 35.9825 20.7998C36.915 19.6373 36.65 17.7023 36.65 17.7023C36.65 17.7023 35.1725 18.3098 33.8175 18.2648C32.375 18.2198 31.215 17.5748 31.215 17.5748ZM29.3725 28.1748C29.005 28.0623 28.8575 28.6323 28.8325 28.9948C28.8075 29.3573 28.81 29.8273 29.1375 29.9448C29.465 30.0623 29.4 29.3648 29.43 29.1348C29.49 28.6923 29.76 28.2923 29.3725 28.1748ZM30.815 28.3873C30.595 28.3773 30.3625 28.5998 30.335 29.2448C30.3125 29.7848 30.335 30.2298 30.64 30.2548C31.05 30.2873 30.935 29.7623 30.9575 29.3273C30.9675 29.0798 31.2725 28.4098 30.815 28.3873ZM36.4125 29.0898C36.06 29.0898 36.05 29.4898 36.05 29.9223C36.05 30.3573 35.96 30.8948 36.355 30.9423C36.835 30.9998 36.7425 30.3548 36.7425 29.9923C36.74 29.6773 36.7975 29.0898 36.4125 29.0898ZM38.0075 29.0098C37.725 29.0673 37.75 29.4548 37.76 29.9248C37.7725 30.3948 37.7025 30.8923 38.1 30.8523C38.44 30.8173 38.4175 30.2648 38.405 29.8423C38.395 29.4773 38.4425 28.9173 38.0075 29.0098ZM42.84 25.9523C42.5975 25.9048 42.3225 26.1098 42.2525 26.6573C42.195 27.1273 42.2175 27.5398 42.6275 27.6298C42.8375 27.6773 42.875 27.1373 42.885 26.7498C42.8975 26.4148 43.145 26.0123 42.84 25.9523ZM44.165 26.2373C43.9325 26.1998 43.705 26.3423 43.645 26.9248C43.61 27.2648 43.485 27.8748 43.9075 27.8973C44.235 27.9123 44.21 27.3748 44.24 27.0948C44.2875 26.6523 44.5475 26.3023 44.165 26.2373Z" fill="#D27856"/>
<path d="M30.1121 53.072C29.4801 53.072 28.8961 52.968 28.3601 52.76C27.8241 52.544 27.3601 52.244 26.9681 51.86C26.5761 51.476 26.2681 51.024 26.0441 50.504C25.8281 49.984 25.7201 49.416 25.7201 48.8C25.7201 48.184 25.8281 47.616 26.0441 47.096C26.2681 46.576 26.5761 46.124 26.9681 45.74C27.3681 45.356 27.8361 45.06 28.3721 44.852C28.9081 44.636 29.4921 44.528 30.1241 44.528C30.7321 44.528 31.3041 44.632 31.8401 44.84C32.3761 45.04 32.8281 45.344 33.1961 45.752L32.6321 46.316C32.2881 45.964 31.9081 45.712 31.4921 45.56C31.0761 45.4 30.6281 45.32 30.1481 45.32C29.6441 45.32 29.1761 45.408 28.7441 45.584C28.3121 45.752 27.9361 45.996 27.6161 46.316C27.2961 46.628 27.0441 46.996 26.8601 47.42C26.6841 47.836 26.5961 48.296 26.5961 48.8C26.5961 49.304 26.6841 49.768 26.8601 50.192C27.0441 50.608 27.2961 50.976 27.6161 51.296C27.9361 51.608 28.3121 51.852 28.7441 52.028C29.1761 52.196 29.6441 52.28 30.1481 52.28C30.6281 52.28 31.0761 52.2 31.4921 52.04C31.9081 51.88 32.2881 51.624 32.6321 51.272L33.1961 51.836C32.8281 52.244 32.3761 52.552 31.8401 52.76C31.3041 52.968 30.7281 53.072 30.1121 53.072ZM38.2751 46.64C38.7871 46.64 39.2351 46.74 39.6191 46.94C40.0111 47.132 40.3151 47.428 40.5311 47.828C40.7551 48.228 40.8671 48.732 40.8671 49.34V53H40.0151V49.424C40.0151 48.76 39.8471 48.26 39.5111 47.924C39.1831 47.58 38.7191 47.408 38.1191 47.408C37.6711 47.408 37.2791 47.5 36.9431 47.684C36.6151 47.86 36.3591 48.12 36.1751 48.464C35.9991 48.8 35.9111 49.208 35.9111 49.688V53H35.0591V44.096H35.9111V48.428L35.7431 48.104C35.9431 47.648 36.2631 47.292 36.7031 47.036C37.1431 46.772 37.6671 46.64 38.2751 46.64ZM45.8865 53.06C45.2785 53.06 44.7305 52.924 44.2425 52.652C43.7625 52.372 43.3825 51.992 43.1025 51.512C42.8225 51.024 42.6825 50.468 42.6825 49.844C42.6825 49.212 42.8225 48.656 43.1025 48.176C43.3825 47.696 43.7625 47.32 44.2425 47.048C44.7225 46.776 45.2705 46.64 45.8865 46.64C46.5105 46.64 47.0625 46.776 47.5425 47.048C48.0305 47.32 48.4105 47.696 48.6825 48.176C48.9625 48.656 49.1025 49.212 49.1025 49.844C49.1025 50.468 48.9625 51.024 48.6825 51.512C48.4105 51.992 48.0305 52.372 47.5425 52.652C47.0545 52.924 46.5025 53.06 45.8865 53.06ZM45.8865 52.304C46.3425 52.304 46.7465 52.204 47.0985 52.004C47.4505 51.796 47.7265 51.508 47.9265 51.14C48.1345 50.764 48.2385 50.332 48.2385 49.844C48.2385 49.348 48.1345 48.916 47.9265 48.548C47.7265 48.18 47.4505 47.896 47.0985 47.696C46.7465 47.488 46.3465 47.384 45.8985 47.384C45.4505 47.384 45.0505 47.488 44.6985 47.696C44.3465 47.896 44.0665 48.18 43.8585 48.548C43.6505 48.916 43.5465 49.348 43.5465 49.844C43.5465 50.332 43.6505 50.764 43.8585 51.14C44.0665 51.508 44.3465 51.796 44.6985 52.004C45.0505 52.204 45.4465 52.304 45.8865 52.304ZM45.1065 45.716L46.7505 44.228H47.8905L45.9465 45.716H45.1065Z" fill="#0F0F0F"/>
</svg>
