<svg width="74" height="58" viewBox="0 0 74 58" fill="none" xmlns="http://www.w3.org/2000/svg">
<path d="M38.755 23.4948C38.755 23.8698 38.865 24.8098 38.865 25.1848C38.865 25.5598 39.1 26.3098 40.12 26.4173C41.6975 26.5798 42.085 25.7573 42.2675 24.7973C42.515 23.4948 42.37 21.9473 42.37 21.9473L38.755 23.4948Z" fill="#FFA8A7"/>
<path d="M51.0725 4.91234C51.5175 4.81734 52.105 4.95984 52.1275 4.51234C52.155 3.97234 51.47 3.61984 50.65 3.85484C49.8325 4.08734 49.57 4.79234 49.57 4.79234C49.57 4.79234 48.6425 4.35984 47.8325 5.00234C46.9175 5.72984 46.8475 7.25484 46.8475 7.25484L48.1375 8.49734C48.1375 8.49734 48.17 7.05734 48.3725 6.52734C48.63 5.84734 49.0775 5.96484 49.0775 5.96484C49.0775 5.96484 48.585 7.32484 49.265 8.14734C50.08 9.13234 51.8925 8.70984 51.635 7.04484C51.4825 6.05484 50.5325 5.44984 50.5325 5.44984C50.5325 5.44984 50.7375 4.98234 51.0725 4.91234ZM50.3925 7.70484C49.645 7.78984 49.8775 6.48484 50.0175 6.10984C50.6275 6.36734 51.0025 7.63234 50.3925 7.70484Z" fill="#FFD2B1"/>
<path d="M32.6175 6.21498C37.165 4.36498 46.13 3.94498 49.16 8.78498C52.2225 13.6775 50.11 16.81 49.7575 17.69C49.2525 18.9525 48.8075 20.575 48.7025 21.42C48.5775 22.4125 48.42 24.975 48.315 25.5025C48.21 26.03 47.295 26.805 46.345 26.735C45.395 26.665 44.62 26.0675 44.55 25.5025C44.48 24.94 44.76 23.5325 44.0925 23.04C43.425 22.5475 41.4175 22.865 40.22 23.4975C39.0225 24.13 33.37 27.0775 27.0575 24.3075C20.7225 21.525 22.2 15.505 23.75 13.745C25.3 11.985 25.1225 11.6325 25.1225 11.6325C25.1225 11.6325 23.575 12.02 24.1725 10.7875C24.77 9.55498 26.32 7.51498 26.6 7.33748C26.8825 7.16248 27.7975 6.87998 28.29 7.19748C28.7825 7.51498 28.7825 7.97248 28.7825 7.97248C28.7825 7.97248 29.5925 7.44498 32.6175 6.21498Z" fill="#FFD2B1"/>
<path d="M26.3175 23.46C26.3175 23.46 26.3875 25.9225 26.4225 26.5225C26.4575 27.1225 26.54 28.095 26.6325 28.565C26.7375 29.0925 27.1625 29.395 28.005 29.445C29.1675 29.515 29.73 29.0225 29.835 28.6C29.94 28.1775 30.045 24.3775 30.045 24.3775L26.3175 23.46ZM32.9 24.55C32.9 24.55 32.89 25.7825 32.935 27.0125C32.97 27.9625 32.97 29.055 33.075 29.335C33.25 29.8025 34.095 30.075 34.835 30.11C35.645 30.1475 36.19 29.74 36.525 29.405C36.7 29.23 36.7 28.35 36.735 27.0825C36.755 26.3425 36.805 24.1625 36.805 24.1625L32.9 24.55Z" fill="#FFD2B1"/>
<path d="M36.83 10.8948C36.6425 10.4873 35.685 10.8948 35.445 11.5048C35.14 12.2798 35.445 13.0298 35.89 13.8748C36.195 14.4523 37.58 16.2448 39.175 15.8698C41.03 15.4323 40.5125 12.5373 40.4425 12.2098C40.3725 11.8823 40.15 11.4448 39.7625 11.5048C39.3175 11.5748 39.53 12.3148 39.5525 12.8648C39.575 13.4748 39.6 14.5073 38.8725 14.6723C38.095 14.8473 37.545 14.3373 37.1125 13.6398C36.69 12.9598 36.1975 12.4423 36.3375 11.8098C36.425 11.4198 36.97 11.1998 36.83 10.8948ZM27.3275 10.1198C26.9725 9.98232 26.5525 10.5198 26.155 10.8473C25.7575 11.1748 25.03 11.5973 24.7475 11.2473C24.455 10.8798 25.3775 9.91732 25.92 8.99482C26.39 8.19732 26.83 7.28232 27.445 7.23482C28.36 7.16482 27.6475 6.75482 26.975 6.88232C26.4825 6.97732 25.8025 7.42232 25.4275 8.17232C25.0525 8.92232 23.2675 10.8248 23.855 11.6923C24.53 12.6923 26.0125 12.2323 26.67 11.6923C27.3275 11.1523 27.75 10.2848 27.3275 10.1198Z" fill="#E6508F"/>
<path d="M28.5 17.3001C27.21 17.0651 25.155 17.4251 25.005 18.8726C24.8875 19.9976 25.615 21.3601 27.985 21.8751C30.355 22.3901 31.5275 21.5001 31.645 20.2326C31.7625 18.9676 30.425 17.6526 28.5 17.3001Z" fill="#FF7D86"/>
<path d="M27.68 19.3174C27.73 19.8849 27.575 20.2949 27.235 20.3274C26.895 20.3574 26.4175 19.9574 26.3675 19.3899C26.3175 18.8224 26.4675 18.3574 26.9075 18.3574C27.2475 18.3574 27.6275 18.7499 27.68 19.3174Z" fill="#2D2D2B"/>
<path d="M29.8664 19.8008C29.9175 19.2592 29.6671 18.7926 29.3069 18.7586C28.9468 18.7245 28.6133 19.136 28.5622 19.6776C28.511 20.2192 28.7614 20.6858 29.1216 20.7198C29.4817 20.7539 29.8152 20.3424 29.8664 19.8008Z" fill="#2D2D2B"/>
<path d="M35.3069 16.6614C35.3726 15.9978 34.9692 15.4146 34.4059 15.3588C33.8425 15.3031 33.3326 15.7959 33.2669 16.4595C33.2012 17.1231 33.6046 17.7063 34.168 17.7621C34.7313 17.8179 35.2412 17.3251 35.3069 16.6614Z" fill="#2D2D2B"/>
<path d="M27.8877 15.1539C27.9527 14.4971 27.5343 13.9181 26.9531 13.8606C26.3719 13.803 25.848 14.2888 25.783 14.9456C25.718 15.6023 26.1364 16.1814 26.7176 16.2389C27.2988 16.2965 27.8227 15.8107 27.8877 15.1539Z" fill="#2D2D2B"/>
<path d="M32.2233 44.6H33.0993V53H32.2233V44.6ZM26.9673 53H26.0793V44.6H26.9673V53ZM32.3073 49.124H26.8713V48.344H32.3073V49.124ZM38.487 53.06C37.831 53.06 37.255 52.924 36.759 52.652C36.263 52.372 35.875 51.992 35.595 51.512C35.315 51.024 35.175 50.468 35.175 49.844C35.175 49.22 35.307 48.668 35.571 48.188C35.843 47.708 36.211 47.332 36.675 47.06C37.147 46.78 37.675 46.64 38.259 46.64C38.851 46.64 39.375 46.776 39.831 47.048C40.295 47.312 40.659 47.688 40.923 48.176C41.187 48.656 41.319 49.212 41.319 49.844C41.319 49.884 41.315 49.928 41.307 49.976C41.307 50.016 41.307 50.06 41.307 50.108H35.823V49.472H40.851L40.515 49.724C40.515 49.268 40.415 48.864 40.215 48.512C40.023 48.152 39.759 47.872 39.423 47.672C39.087 47.472 38.699 47.372 38.259 47.372C37.827 47.372 37.439 47.472 37.095 47.672C36.751 47.872 36.483 48.152 36.291 48.512C36.099 48.872 36.003 49.284 36.003 49.748V49.88C36.003 50.36 36.107 50.784 36.315 51.152C36.531 51.512 36.827 51.796 37.203 52.004C37.587 52.204 38.023 52.304 38.511 52.304C38.895 52.304 39.251 52.236 39.579 52.1C39.915 51.964 40.203 51.756 40.443 51.476L40.923 52.028C40.643 52.364 40.291 52.62 39.867 52.796C39.451 52.972 38.991 53.06 38.487 53.06ZM45.7712 53.06C45.1632 53.06 44.6152 52.924 44.1272 52.652C43.6472 52.372 43.2672 51.992 42.9872 51.512C42.7072 51.024 42.5672 50.468 42.5672 49.844C42.5672 49.212 42.7072 48.656 42.9872 48.176C43.2672 47.696 43.6472 47.32 44.1272 47.048C44.6072 46.776 45.1552 46.64 45.7712 46.64C46.3952 46.64 46.9472 46.776 47.4272 47.048C47.9152 47.32 48.2952 47.696 48.5672 48.176C48.8472 48.656 48.9872 49.212 48.9872 49.844C48.9872 50.468 48.8472 51.024 48.5672 51.512C48.2952 51.992 47.9152 52.372 47.4272 52.652C46.9392 52.924 46.3872 53.06 45.7712 53.06ZM45.7712 52.304C46.2272 52.304 46.6312 52.204 46.9832 52.004C47.3352 51.796 47.6112 51.508 47.8112 51.14C48.0192 50.764 48.1232 50.332 48.1232 49.844C48.1232 49.348 48.0192 48.916 47.8112 48.548C47.6112 48.18 47.3352 47.896 46.9832 47.696C46.6312 47.488 46.2312 47.384 45.7832 47.384C45.3352 47.384 44.9352 47.488 44.5832 47.696C44.2312 47.896 43.9512 48.18 43.7432 48.548C43.5352 48.916 43.4312 49.348 43.4312 49.844C43.4312 50.332 43.5352 50.764 43.7432 51.14C43.9512 51.508 44.2312 51.796 44.5832 52.004C44.9352 52.204 45.3312 52.304 45.7712 52.304Z" fill="#0F0F0F"/>
</svg>
