<svg width="45" height="45" viewBox="0 0 45 45" fill="none" xmlns="http://www.w3.org/2000/svg">
<g clip-path="url(#clip0_1447_3450)">
<g filter="url(#filter0_d_1447_3450)">
<path d="M22.5 2.8125C18.3989 2.81734 14.4672 4.44863 11.5673 7.34854C8.66739 10.2484 7.0361 14.1802 7.03126 18.2812C7.02749 21.6325 8.1221 24.8926 10.1475 27.5625C10.1475 27.5625 10.5694 28.118 10.6383 28.1981L22.5 42.1875L34.3674 28.1911C34.4292 28.1166 34.8525 27.5625 34.8525 27.5625L34.8539 27.5583C36.878 24.8893 37.972 21.6309 37.9688 18.2812C37.9639 14.1802 36.3326 10.2484 33.4327 7.34854C30.5328 4.44863 26.6011 2.81734 22.5 2.8125ZM22.5 23.9062C21.3875 23.9062 20.3 23.5763 19.3749 22.9583C18.4499 22.3402 17.7289 21.4617 17.3032 20.4338C16.8774 19.406 16.766 18.275 16.9831 17.1839C17.2001 16.0927 17.7359 15.0904 18.5225 14.3038C19.3092 13.5171 20.3115 12.9814 21.4026 12.7643C22.4938 12.5473 23.6248 12.6587 24.6526 13.0844C25.6804 13.5102 26.5589 14.2311 27.177 15.1562C27.7951 16.0812 28.125 17.1687 28.125 18.2812C28.1231 19.7725 27.5299 21.2022 26.4754 22.2567C25.4209 23.3112 23.9913 23.9044 22.5 23.9062Z" fill="#EA661C"/>
</g>
</g>
<defs>
<filter id="filter0_d_1447_3450" x="4.03125" y="-3.1875" width="38.9375" height="47.375" filterUnits="userSpaceOnUse" color-interpolation-filters="sRGB">
<feFlood flood-opacity="0" result="BackgroundImageFix"/>
<feColorMatrix in="SourceAlpha" type="matrix" values="0 0 0 0 0 0 0 0 0 0 0 0 0 0 0 0 0 0 127 0" result="hardAlpha"/>
<feOffset dx="1" dy="-2"/>
<feGaussianBlur stdDeviation="2"/>
<feComposite in2="hardAlpha" operator="out"/>
<feColorMatrix type="matrix" values="0 0 0 0 0 0 0 0 0 0 0 0 0 0 0 0 0 0 0.1 0"/>
<feBlend mode="normal" in2="BackgroundImageFix" result="effect1_dropShadow_1447_3450"/>
<feBlend mode="normal" in="SourceGraphic" in2="effect1_dropShadow_1447_3450" result="shape"/>
</filter>
<clipPath id="clip0_1447_3450">
<rect width="45" height="45" fill="white"/>
</clipPath>
</defs>
</svg>
